<svg xmlns="http://www.w3.org/2000/svg" xmlns:xlink="http://www.w3.org/1999/xlink" width="500" zoomAndPan="magnify" viewBox="0 0 375 374.999991" height="500" preserveAspectRatio="xMidYMid meet" version="1.0"><defs><clipPath id="b2dee4fb46"><path d="M 51.746094 51.746094 L 323.246094 51.746094 L 323.246094 323.246094 L 51.746094 323.246094 Z M 51.746094 51.746094 " clip-rule="nonzero"/></clipPath></defs><g clip-path="url(#b2dee4fb46)"><path fill="#ffffff" d="M 187.558594 51.746094 C 185.335938 51.746094 183.117188 51.804688 180.898438 51.914062 C 178.679688 52.023438 176.464844 52.1875 174.253906 52.40625 C 172.042969 52.625 169.835938 52.894531 167.640625 53.222656 C 165.441406 53.550781 163.253906 53.929688 161.074219 54.363281 C 158.894531 54.800781 156.726562 55.285156 154.574219 55.828125 C 152.417969 56.367188 150.277344 56.960938 148.152344 57.605469 C 146.027344 58.253906 143.917969 58.949219 141.824219 59.699219 C 139.734375 60.449219 137.660156 61.246094 135.609375 62.097656 C 133.554688 62.949219 131.527344 63.851562 129.519531 64.800781 C 127.507812 65.753906 125.527344 66.75 123.566406 67.800781 C 121.609375 68.847656 119.675781 69.941406 117.769531 71.085938 C 115.863281 72.230469 113.988281 73.417969 112.140625 74.652344 C 110.292969 75.886719 108.480469 77.167969 106.695312 78.492188 C 104.910156 79.816406 103.160156 81.183594 101.441406 82.59375 C 99.726562 84.003906 98.042969 85.453125 96.398438 86.945312 C 94.753906 88.4375 93.144531 89.972656 91.574219 91.542969 C 90.003906 93.113281 88.472656 94.722656 86.980469 96.371094 C 85.488281 98.015625 84.039062 99.699219 82.628906 101.417969 C 81.222656 103.136719 79.855469 104.886719 78.53125 106.671875 C 77.210938 108.457031 75.929688 110.273438 74.695312 112.121094 C 73.464844 113.96875 72.277344 115.847656 71.132812 117.753906 C 69.992188 119.660156 68.898438 121.589844 67.851562 123.550781 C 66.804688 125.511719 65.804688 127.496094 64.855469 129.503906 C 63.90625 131.511719 63.007812 133.542969 62.160156 135.597656 C 61.308594 137.648438 60.511719 139.722656 59.761719 141.816406 C 59.015625 143.90625 58.320312 146.015625 57.675781 148.144531 C 57.03125 150.269531 56.4375 152.410156 55.898438 154.566406 C 55.359375 156.722656 54.875 158.886719 54.441406 161.066406 C 54.007812 163.246094 53.628906 165.433594 53.304688 167.632812 C 52.980469 169.832031 52.707031 172.035156 52.492188 174.246094 C 52.273438 176.457031 52.109375 178.671875 52.003906 180.894531 C 51.894531 183.113281 51.839844 185.332031 51.839844 187.554688 C 51.839844 189.777344 51.898438 191.996094 52.007812 194.214844 C 52.117188 196.433594 52.28125 198.648438 52.5 200.859375 C 52.71875 203.070312 52.988281 205.277344 53.316406 207.472656 C 53.644531 209.671875 54.023438 211.859375 54.457031 214.039062 C 54.890625 216.21875 55.378906 218.386719 55.917969 220.539062 C 56.460938 222.695312 57.054688 224.835938 57.699219 226.960938 C 58.34375 229.089844 59.042969 231.195312 59.789062 233.289062 C 60.539062 235.378906 61.339844 237.453125 62.191406 239.503906 C 63.042969 241.558594 63.941406 243.589844 64.894531 245.597656 C 65.84375 247.605469 66.84375 249.589844 67.890625 251.546875 C 68.9375 253.507812 70.035156 255.4375 71.175781 257.34375 C 72.320312 259.25 73.507812 261.125 74.742188 262.972656 C 75.976562 264.820312 77.257812 266.636719 78.582031 268.417969 C 79.90625 270.203125 81.273438 271.953125 82.683594 273.671875 C 84.09375 275.390625 85.542969 277.070312 87.035156 278.714844 C 88.53125 280.363281 90.0625 281.96875 91.632812 283.542969 C 93.203125 285.113281 94.8125 286.644531 96.460938 288.132812 C 98.105469 289.625 99.789062 291.078125 101.507812 292.484375 C 103.226562 293.894531 104.976562 295.261719 106.761719 296.582031 C 108.546875 297.90625 110.363281 299.183594 112.210938 300.417969 C 114.058594 301.652344 115.9375 302.839844 117.839844 303.984375 C 119.746094 305.125 121.679688 306.21875 123.640625 307.265625 C 125.601562 308.3125 127.585938 309.308594 129.59375 310.257812 C 131.601562 311.207031 133.632812 312.109375 135.6875 312.957031 C 137.738281 313.808594 139.8125 314.605469 141.902344 315.355469 C 143.996094 316.101562 146.105469 316.796875 148.230469 317.441406 C 150.359375 318.085938 152.5 318.679688 154.652344 319.21875 C 156.808594 319.757812 158.976562 320.242188 161.15625 320.675781 C 163.335938 321.109375 165.523438 321.488281 167.722656 321.8125 C 169.917969 322.140625 172.125 322.410156 174.335938 322.628906 C 176.546875 322.84375 178.761719 323.007812 180.980469 323.117188 C 183.199219 323.226562 185.421875 323.277344 187.644531 323.277344 C 189.863281 323.277344 192.085938 323.222656 194.304688 323.113281 C 196.523438 323.003906 198.738281 322.839844 200.949219 322.621094 C 203.160156 322.402344 205.363281 322.128906 207.5625 321.804688 C 209.761719 321.476562 211.949219 321.097656 214.128906 320.664062 C 216.308594 320.226562 218.472656 319.742188 220.628906 319.199219 C 222.785156 318.660156 224.925781 318.066406 227.050781 317.421875 C 229.175781 316.777344 231.285156 316.078125 233.378906 315.328125 C 235.46875 314.582031 237.542969 313.78125 239.59375 312.929688 C 241.648438 312.078125 243.675781 311.179688 245.683594 310.226562 C 247.695312 309.277344 249.675781 308.277344 251.636719 307.230469 C 253.597656 306.183594 255.527344 305.085938 257.433594 303.945312 C 259.339844 302.800781 261.214844 301.613281 263.0625 300.378906 C 264.910156 299.144531 266.726562 297.863281 268.507812 296.539062 C 270.292969 295.214844 272.042969 293.847656 273.761719 292.4375 C 275.480469 291.027344 277.160156 289.578125 278.804688 288.085938 C 280.453125 286.59375 282.058594 285.0625 283.632812 283.488281 C 285.203125 281.917969 286.734375 280.308594 288.226562 278.664062 C 289.714844 277.015625 291.167969 275.332031 292.574219 273.617188 C 293.984375 271.898438 295.351562 270.144531 296.675781 268.359375 C 297.996094 266.578125 299.277344 264.761719 300.507812 262.914062 C 301.742188 261.066406 302.929688 259.1875 304.074219 257.28125 C 305.214844 255.375 306.308594 253.441406 307.355469 251.484375 C 308.402344 249.523438 309.402344 247.539062 310.351562 245.53125 C 311.300781 243.519531 312.199219 241.492188 313.050781 239.4375 C 313.898438 237.386719 314.699219 235.3125 315.445312 233.21875 C 316.195312 231.128906 316.890625 229.019531 317.535156 226.890625 C 318.179688 224.765625 318.773438 222.625 319.3125 220.46875 C 319.851562 218.3125 320.335938 216.148438 320.769531 213.96875 C 321.203125 211.789062 321.582031 209.601562 321.90625 207.402344 C 322.234375 205.203125 322.503906 203 322.722656 200.789062 C 322.9375 198.578125 323.101562 196.363281 323.210938 194.144531 C 323.320312 191.921875 323.371094 189.703125 323.371094 187.480469 C 323.367188 185.261719 323.308594 183.039062 323.195312 180.824219 C 323.082031 178.605469 322.914062 176.390625 322.691406 174.179688 C 322.46875 171.972656 322.195312 169.769531 321.867188 167.570312 C 321.535156 165.375 321.152344 163.1875 320.714844 161.011719 C 320.277344 158.832031 319.789062 156.667969 319.246094 154.515625 C 318.703125 152.359375 318.109375 150.222656 317.460938 148.097656 C 316.8125 145.972656 316.113281 143.867188 315.363281 141.773438 C 314.609375 139.683594 313.808594 137.613281 312.957031 135.5625 C 312.105469 133.511719 311.203125 131.484375 310.25 129.476562 C 309.300781 127.46875 308.300781 125.488281 307.25 123.53125 C 306.203125 121.574219 305.105469 119.640625 303.960938 117.738281 C 302.820312 115.835938 301.628906 113.960938 300.394531 112.113281 C 299.160156 110.269531 297.878906 108.453125 296.554688 106.671875 C 295.230469 104.886719 293.863281 103.136719 292.453125 101.421875 C 291.042969 99.707031 289.59375 98.023438 288.101562 96.378906 C 286.609375 94.734375 285.078125 93.128906 283.507812 91.558594 C 281.9375 89.988281 280.328125 88.457031 278.679688 86.964844 C 277.035156 85.472656 275.355469 84.023438 273.636719 82.617188 C 271.921875 81.207031 270.171875 79.839844 268.386719 78.515625 C 266.601562 77.195312 264.789062 75.914062 262.941406 74.679688 C 261.09375 73.449219 259.21875 72.257812 257.3125 71.117188 C 255.410156 69.972656 253.476562 68.878906 251.519531 67.832031 C 249.5625 66.785156 247.578125 65.785156 245.570312 64.835938 C 243.5625 63.882812 241.535156 62.984375 239.484375 62.132812 C 237.433594 61.28125 235.359375 60.480469 233.269531 59.730469 C 231.179688 58.980469 229.070312 58.28125 226.945312 57.636719 C 224.824219 56.988281 222.683594 56.394531 220.527344 55.855469 C 218.375 55.3125 216.210938 54.824219 214.03125 54.386719 C 211.855469 53.953125 209.667969 53.570312 207.46875 53.242188 C 205.273438 52.914062 203.070312 52.640625 200.859375 52.417969 C 198.648438 52.199219 196.4375 52.03125 194.21875 51.921875 C 192 51.808594 189.78125 51.75 187.558594 51.746094 Z M 225.050781 302.03125 C 219.160156 303.234375 216.988281 299.613281 216.988281 296.488281 C 216.988281 292.503906 217.160156 279.851562 217.160156 264.089844 C 217.160156 253.152344 213.445312 246 209.195312 242.359375 C 235.359375 239.40625 262.902344 229.457031 262.902344 184.230469 C 262.945312 181.332031 262.714844 178.457031 262.210938 175.601562 C 261.703125 172.746094 260.933594 169.964844 259.894531 167.261719 C 258.855469 164.554688 257.570312 161.96875 256.035156 159.507812 C 254.503906 157.046875 252.75 154.753906 250.777344 152.628906 C 251.980469 149.675781 256.136719 137.632812 249.640625 121.386719 C 249.640625 121.386719 239.765625 118.167969 217.253906 133.414062 C 212.460938 132.125 207.601562 131.152344 202.679688 130.503906 C 197.757812 129.851562 192.8125 129.527344 187.847656 129.527344 C 182.882812 129.527344 177.9375 129.851562 173.015625 130.503906 C 168.09375 131.152344 163.234375 132.125 158.441406 133.414062 C 135.929688 118.355469 126.042969 121.386719 126.042969 121.386719 C 119.636719 137.570312 123.714844 149.613281 124.917969 152.628906 C 122.960938 154.761719 121.21875 157.058594 119.699219 159.523438 C 118.175781 161.988281 116.902344 164.570312 115.871094 167.277344 C 114.839844 169.984375 114.074219 172.761719 113.574219 175.613281 C 113.074219 178.464844 112.84375 181.335938 112.890625 184.230469 C 112.890625 229.269531 140.257812 239.40625 166.40625 242.359375 C 163.035156 245.296875 159.910156 250.40625 158.878906 258.121094 C 152.113281 261.152344 135.226562 266.167969 124.667969 248.421875 C 122.417969 244.859375 115.824219 236.203125 106.5625 236.296875 C 96.691406 236.46875 102.578125 241.921875 106.65625 244.109375 C 111.671875 246.96875 117.386719 257.355469 118.777344 260.730469 C 121.105469 267.402344 128.730469 280.039062 158.269531 274.585938 C 158.269531 284.460938 158.441406 293.738281 158.441406 296.457031 C 158.441406 299.582031 156.285156 303.03125 150.378906 302 C 148.199219 301.269531 146.039062 300.476562 143.90625 299.617188 C 141.769531 298.761719 139.660156 297.839844 137.582031 296.859375 C 135.5 295.878906 133.449219 294.835938 131.429688 293.734375 C 129.410156 292.632812 127.421875 291.472656 125.46875 290.253906 C 123.519531 289.035156 121.605469 287.761719 119.726562 286.429688 C 117.851562 285.097656 116.015625 283.714844 114.21875 282.273438 C 112.421875 280.835938 110.671875 279.34375 108.960938 277.804688 C 107.253906 276.261719 105.59375 274.671875 103.976562 273.03125 C 102.363281 271.394531 100.796875 269.707031 99.28125 267.976562 C 97.765625 266.246094 96.304688 264.46875 94.890625 262.652344 C 93.480469 260.835938 92.125 258.980469 90.820312 257.082031 C 89.519531 255.183594 88.273438 253.25 87.082031 251.28125 C 85.894531 249.3125 84.765625 247.308594 83.695312 245.269531 C 82.621094 243.234375 81.613281 241.167969 80.660156 239.074219 C 79.710938 236.976562 78.824219 234.855469 78 232.707031 C 77.175781 230.558594 76.414062 228.390625 75.714844 226.195312 C 75.015625 224.003906 74.382812 221.792969 73.816406 219.5625 C 73.25 217.332031 72.746094 215.085938 72.308594 212.828125 C 71.875 210.570312 71.503906 208.300781 71.203125 206.019531 C 70.898438 203.738281 70.664062 201.449219 70.496094 199.152344 C 70.328125 196.859375 70.226562 194.5625 70.191406 192.261719 C 70.160156 189.960938 70.191406 187.660156 70.292969 185.359375 C 70.398438 183.0625 70.566406 180.769531 70.800781 178.480469 C 71.039062 176.191406 71.339844 173.910156 71.710938 171.640625 C 72.082031 169.367188 72.519531 167.109375 73.023438 164.863281 C 73.523438 162.621094 74.09375 160.390625 74.726562 158.179688 C 75.359375 155.96875 76.058594 153.777344 76.820312 151.605469 C 77.582031 149.433594 78.410156 147.285156 79.296875 145.164062 C 80.1875 143.042969 81.136719 140.945312 82.148438 138.878906 C 83.160156 136.8125 84.230469 134.777344 85.363281 132.773438 C 86.492188 130.769531 87.683594 128.800781 88.929688 126.867188 C 90.175781 124.933594 91.480469 123.039062 92.835938 121.179688 C 94.195312 119.324219 95.605469 117.507812 97.070312 115.730469 C 98.535156 113.957031 100.050781 112.226562 101.617188 110.542969 C 103.183594 108.855469 104.800781 107.21875 106.460938 105.628906 C 108.125 104.035156 109.832031 102.496094 111.585938 101.007812 C 113.339844 99.515625 115.132812 98.078125 116.972656 96.691406 C 118.808594 95.308594 120.6875 93.976562 122.601562 92.703125 C 124.515625 91.429688 126.46875 90.210938 128.457031 89.050781 C 130.441406 87.890625 132.460938 86.789062 134.515625 85.75 C 136.566406 84.707031 138.648438 83.726562 140.757812 82.808594 C 142.867188 81.886719 145 81.03125 147.160156 80.238281 C 149.320312 79.441406 151.5 78.714844 153.703125 78.046875 C 155.90625 77.382812 158.125 76.78125 160.363281 76.246094 C 162.601562 75.710938 164.855469 75.242188 167.117188 74.835938 C 169.382812 74.433594 171.660156 74.097656 173.945312 73.828125 C 176.230469 73.558594 178.519531 73.355469 180.816406 73.222656 C 183.117188 73.085938 185.414062 73.019531 187.714844 73.019531 C 190.015625 73.019531 192.316406 73.085938 194.613281 73.222656 C 196.910156 73.355469 199.199219 73.558594 201.484375 73.828125 C 203.769531 74.097656 206.046875 74.433594 208.3125 74.835938 C 210.578125 75.242188 212.828125 75.710938 215.066406 76.246094 C 217.304688 76.78125 219.523438 77.382812 221.726562 78.046875 C 223.929688 78.714844 226.113281 79.441406 228.269531 80.238281 C 230.429688 81.03125 232.566406 81.886719 234.675781 82.808594 C 236.785156 83.726562 238.863281 84.707031 240.917969 85.75 C 242.96875 86.789062 244.988281 87.890625 246.976562 89.050781 C 248.960938 90.210938 250.914062 91.429688 252.828125 92.703125 C 254.746094 93.976562 256.621094 95.308594 258.460938 96.691406 C 260.296875 98.078125 262.09375 99.515625 263.84375 101.007812 C 265.597656 102.496094 267.304688 104.035156 268.96875 105.628906 C 270.632812 107.21875 272.246094 108.855469 273.8125 110.542969 C 275.378906 112.226562 276.894531 113.957031 278.359375 115.730469 C 279.824219 117.507812 281.234375 119.324219 282.59375 121.179688 C 283.953125 123.039062 285.253906 124.933594 286.5 126.867188 C 287.75 128.800781 288.9375 130.769531 290.066406 132.773438 C 291.199219 134.777344 292.269531 136.8125 293.28125 138.878906 C 294.292969 140.945312 295.246094 143.042969 296.132812 145.164062 C 297.023438 147.285156 297.847656 149.433594 298.609375 151.605469 C 299.371094 153.773438 300.070312 155.96875 300.703125 158.179688 C 301.339844 160.390625 301.90625 162.621094 302.410156 164.863281 C 302.914062 167.109375 303.347656 169.367188 303.71875 171.640625 C 304.089844 173.910156 304.394531 176.191406 304.628906 178.480469 C 304.867188 180.769531 305.035156 183.0625 305.136719 185.359375 C 305.238281 187.660156 305.273438 189.960938 305.238281 192.261719 C 305.207031 194.5625 305.105469 196.859375 304.9375 199.152344 C 304.769531 201.449219 304.53125 203.738281 304.230469 206.019531 C 303.925781 208.300781 303.558594 210.570312 303.121094 212.828125 C 302.683594 215.085938 302.183594 217.332031 301.613281 219.5625 C 301.046875 221.792969 300.414062 224.003906 299.714844 226.195312 C 299.019531 228.390625 298.257812 230.558594 297.433594 232.707031 C 296.605469 234.855469 295.71875 236.976562 294.769531 239.074219 C 293.820312 241.167969 292.808594 243.234375 291.738281 245.269531 C 290.667969 247.308594 289.535156 249.3125 288.347656 251.28125 C 287.160156 253.25 285.914062 255.183594 284.609375 257.082031 C 283.308594 258.980469 281.949219 260.835938 280.539062 262.652344 C 279.128906 264.46875 277.664062 266.246094 276.148438 267.976562 C 274.632812 269.707031 273.066406 271.394531 271.453125 273.03125 C 269.839844 274.671875 268.175781 276.261719 266.46875 277.804688 C 264.761719 279.34375 263.007812 280.835938 261.214844 282.273438 C 259.417969 283.714844 257.582031 285.097656 255.703125 286.429688 C 253.828125 287.761719 251.914062 289.035156 249.960938 290.253906 C 248.007812 291.472656 246.023438 292.632812 244.003906 293.734375 C 241.984375 294.835938 239.933594 295.878906 237.851562 296.859375 C 235.769531 297.839844 233.660156 298.761719 231.527344 299.617188 C 229.390625 300.476562 227.234375 301.269531 225.050781 302 Z M 225.050781 302.03125 " fill-opacity="1" fill-rule="evenodd"/></g></svg>