<svg xmlns="http://www.w3.org/2000/svg" xmlns:xlink="http://www.w3.org/1999/xlink" width="500" zoomAndPan="magnify" viewBox="0 0 375 374.999991" height="500" preserveAspectRatio="xMidYMid meet" version="1.0"><defs><clipPath id="c7cd052b27"><path d="M 52.257812 52.257812 L 323 52.257812 L 323 323.007812 L 52.257812 323.007812 Z M 52.257812 52.257812 " clip-rule="nonzero"/></clipPath></defs><g clip-path="url(#c7cd052b27)"><path fill="#ffffff" d="M 300.390625 52.257812 L 75.015625 52.257812 C 62.554688 52.257812 52.53125 62.417969 52.53125 74.742188 L 52.53125 300.527344 C 52.53125 312.988281 62.6875 323.007812 75.015625 323.007812 L 300.253906 323.007812 C 312.714844 323.007812 322.738281 312.851562 322.738281 300.527344 L 322.738281 74.742188 C 322.875 62.417969 312.851562 52.257812 300.390625 52.257812 Z M 132.578125 275.605469 L 92.621094 275.605469 L 92.621094 155.601562 L 132.578125 155.601562 Z M 112.53125 141.109375 C 99.933594 141.109375 89.777344 130.953125 89.777344 118.355469 C 89.777344 105.757812 99.933594 95.601562 112.53125 95.601562 C 125.128906 95.601562 135.285156 105.757812 135.285156 118.355469 C 135.285156 130.953125 125.128906 141.109375 112.53125 141.109375 Z M 282.917969 275.605469 L 242.828125 275.605469 L 241.878906 204.363281 C 241.878906 204.363281 242.828125 185.398438 222.105469 185.535156 C 201.382812 185.671875 198.539062 204.363281 198.539062 204.363281 L 198.539062 275.605469 L 158.175781 275.605469 L 158.175781 155.601562 L 196.914062 155.601562 L 196.914062 172.125 C 196.914062 172.125 198.539062 166.707031 207.476562 160.34375 C 216.417969 153.976562 231.179688 152.621094 237.546875 152.894531 C 243.910156 153.164062 252.578125 152.082031 267.070312 162.105469 C 282.648438 172.804688 283.054688 200.839844 283.054688 200.839844 Z M 282.917969 275.605469 " fill-opacity="1" fill-rule="nonzero"/></g></svg>