<svg xmlns="http://www.w3.org/2000/svg" xmlns:xlink="http://www.w3.org/1999/xlink" width="500" zoomAndPan="magnify" viewBox="0 0 375 374.999991" height="500" preserveAspectRatio="xMidYMid meet" version="1.0"><defs><clipPath id="dae056a7df"><path d="M 312 154 L 317 154 L 317 337.152344 L 312 337.152344 Z M 312 154 " clip-rule="nonzero"/></clipPath><clipPath id="6d2e82976b"><path d="M 94 149.652344 L 237 149.652344 L 237 332 L 94 332 Z M 94 149.652344 " clip-rule="nonzero"/></clipPath><clipPath id="6f6c3bbde6"><path d="M 312 154 L 323 154 L 323 337.152344 L 312 337.152344 Z M 312 154 " clip-rule="nonzero"/></clipPath><clipPath id="8ee499759e"><path d="M 49.277344 37.5 L 278.769531 37.5 L 278.769531 131.25 L 49.277344 131.25 Z M 49.277344 37.5 " clip-rule="nonzero"/></clipPath><clipPath id="7e799d1379"><path d="M 142.410156 55.035156 L 182 55.035156 L 182 118 L 142.410156 118 Z M 142.410156 55.035156 " clip-rule="nonzero"/></clipPath><clipPath id="5b8a22c184"><path d="M 143 56 L 182.160156 56 L 182.160156 118 L 143 118 Z M 143 56 " clip-rule="nonzero"/></clipPath><clipPath id="4e2a6b419c"><path d="M 109.332031 128.195312 L 116.082031 128.195312 L 116.082031 158.945312 L 109.332031 158.945312 Z M 109.332031 128.195312 " clip-rule="nonzero"/></clipPath><clipPath id="742376d53a"><path d="M 201.496094 128.195312 L 208.246094 128.195312 L 208.246094 158.945312 L 201.496094 158.945312 Z M 201.496094 128.195312 " clip-rule="nonzero"/></clipPath><clipPath id="738f1052a9"><path d="M 199 60.910156 L 252 60.910156 L 252 111.910156 L 199 111.910156 Z M 199 60.910156 " clip-rule="nonzero"/></clipPath><clipPath id="5795dbebf9"><path d="M 71.777344 58.828125 L 127.277344 58.828125 L 127.277344 114.328125 L 71.777344 114.328125 Z M 71.777344 58.828125 " clip-rule="nonzero"/></clipPath><clipPath id="33800b2e52"><path d="M 140 268 L 168 268 L 168 337.332031 L 140 337.332031 Z M 140 268 " clip-rule="nonzero"/></clipPath><clipPath id="8f37feddf5"><path d="M 121 174.582031 L 153 174.582031 L 153 206 L 121 206 Z M 121 174.582031 " clip-rule="nonzero"/></clipPath></defs><rect x="-37.5" width="450" fill="#ffffff" y="-37.499999" height="449.999989" fill-opacity="1"/><rect x="-37.5" width="450" fill="#06161e" y="-37.499999" height="449.999989" fill-opacity="1"/><g clip-path="url(#dae056a7df)"><path fill="#41c1ba" d="M 312.359375 154.503906 L 316.003906 154.503906 L 316.003906 337.152344 L 312.359375 337.152344 Z M 312.359375 154.503906 " fill-opacity="1" fill-rule="evenodd"/></g><path fill="#41c1ba" d="M 292.777344 229.988281 C 288.375 229.988281 284.730469 236.960938 284.730469 245.449219 C 284.730469 253.9375 288.375 260.910156 292.777344 260.910156 C 297.179688 260.910156 300.824219 253.9375 300.824219 245.449219 C 300.824219 236.960938 297.179688 229.988281 292.929688 229.988281 Z M 217.476562 326.390625 L 217.476562 165.265625 L 224.460938 164.355469 L 236.757812 162.839844 L 307.046875 154.351562 L 307.046875 336.242188 L 236.757812 328.363281 L 224.460938 326.996094 L 217.476562 326.238281 Z M 217.476562 326.390625 " fill-opacity="1" fill-rule="evenodd"/><g clip-path="url(#6d2e82976b)"><path fill="#41c1ba" d="M 236.910156 162.992188 L 224.613281 164.355469 L 224.613281 159.203125 L 106.804688 159.203125 L 106.804688 331.242188 L 94.507812 331.242188 L 94.507812 149.652344 L 236.910156 149.652344 Z M 236.910156 162.992188 " fill-opacity="1" fill-rule="evenodd"/></g><g clip-path="url(#6f6c3bbde6)"><path fill="#41c1ba" d="M 312.359375 154.503906 L 322.078125 154.503906 L 322.078125 337.152344 L 312.359375 337.152344 Z M 312.359375 154.503906 " fill-opacity="1" fill-rule="evenodd"/></g><g clip-path="url(#8ee499759e)"><path stroke-linecap="butt" transform="matrix(0.74977, 0, 0, 0.74757, 49.278239, 37.499998)" fill="none" stroke-linejoin="miter" d="M -0.00119385 0.000003294 L 306.082145 0.000003294 L 306.082145 125.40626 L -0.00119385 125.40626 Z M -0.00119385 0.000003294 " stroke="#41c1ba" stroke-width="8" stroke-opacity="1" stroke-miterlimit="4"/></g><g clip-path="url(#7e799d1379)"><path fill="#41c1ba" d="M 178.257812 55.125 C 174.519531 61.335938 171.097656 67.738281 167.695312 74.140625 C 167.664062 74.199219 167.621094 74.246094 167.589844 74.300781 C 167.363281 74.707031 167.15625 75.125 166.941406 75.535156 C 165.851562 77.589844 164.757812 79.636719 163.660156 81.6875 C 163.140625 82.652344 162.578125 83.597656 162.046875 84.558594 C 158.699219 90.375 155.042969 96.003906 151.570312 101.742188 C 150.390625 103.691406 149.296875 105.714844 147.988281 107.578125 C 146.410156 109.828125 144.53125 111.917969 143.234375 114.363281 C 143.15625 114.503906 143.09375 114.640625 143.023438 114.785156 C 142.953125 114.929688 142.894531 115.082031 142.828125 115.226562 C 142.765625 115.371094 142.691406 115.503906 142.636719 115.648438 C 142.582031 115.792969 142.53125 115.945312 142.480469 116.089844 C 142.445312 116.191406 142.472656 116.328125 142.566406 116.390625 C 142.574219 116.402344 142.597656 116.4375 142.621094 116.460938 C 142.75 116.597656 142.878906 116.742188 143.023438 116.867188 C 143.460938 117.242188 143.917969 117.609375 144.425781 117.886719 C 144.515625 117.9375 144.664062 118 144.761719 117.921875 C 145.132812 117.625 145.417969 117.097656 145.691406 116.707031 C 145.859375 116.464844 146.015625 116.230469 146.183594 115.984375 C 146.453125 115.582031 146.699219 115.164062 146.953125 114.75 C 147.191406 114.882812 147.5625 115.15625 147.601562 115.101562 C 149.011719 112.671875 150.386719 110.214844 151.832031 107.804688 C 155.445312 101.792969 159.316406 95.945312 163.097656 90.039062 C 166.316406 85.011719 169.488281 79.949219 172.417969 74.742188 C 173.9375 72.039062 175.410156 69.328125 177.066406 66.703125 C 178.324219 64.710938 179.671875 62.761719 180.804688 60.695312 C 181.179688 60.007812 181.617188 59.308594 181.910156 58.578125 C 182.03125 58.273438 181.675781 57.976562 181.488281 57.804688 C 181.304688 57.632812 181.125 57.464844 180.925781 57.308594 C 180.773438 57.1875 180.597656 57.085938 180.4375 56.976562 C 180.453125 56.945312 180.46875 56.917969 180.488281 56.886719 C 180.566406 56.785156 180.140625 56.316406 179.523438 55.828125 C 178.90625 55.34375 178.339844 55.023438 178.257812 55.125 Z M 178.257812 55.125 " fill-opacity="1" fill-rule="nonzero"/></g><g clip-path="url(#5b8a22c184)"><path fill="#41c1ba" d="M 179.855469 56.726562 C 175.167969 65.351562 170.816406 74.199219 165.640625 82.550781 C 158.636719 93.855469 150.988281 104.738281 143.777344 115.914062 C 143.699219 116.015625 144.125 116.484375 144.742188 116.972656 C 145.359375 117.457031 145.925781 117.777344 146.007812 117.675781 C 153.214844 106.503906 160.867188 95.621094 167.871094 84.3125 C 173.042969 75.960938 177.394531 67.117188 182.085938 58.492188 C 182.164062 58.390625 181.738281 57.917969 181.121094 57.433594 C 180.503906 56.949219 179.933594 56.628906 179.855469 56.726562 Z M 179.855469 56.726562 " fill-opacity="1" fill-rule="nonzero"/></g><g clip-path="url(#4e2a6b419c)"><path fill="#41c1ba" d="M 109.355469 158.855469 L 109.355469 128.285156 L 116.09375 128.285156 L 116.09375 158.855469 L 109.355469 158.855469 " fill-opacity="1" fill-rule="nonzero"/></g><g clip-path="url(#742376d53a)"><path fill="#41c1ba" d="M 201.519531 158.855469 L 201.519531 128.285156 L 208.253906 128.285156 L 208.253906 158.855469 L 201.519531 158.855469 " fill-opacity="1" fill-rule="nonzero"/></g><g clip-path="url(#738f1052a9)"><path fill="#ffffff" d="M 225.523438 60.921875 C 218.957031 60.921875 212.390625 63.40625 207.390625 68.371094 C 197.398438 78.300781 197.398438 94.476562 207.390625 104.40625 C 212.390625 109.375 218.933594 111.878906 225.523438 111.878906 C 232.113281 111.878906 238.65625 109.375 243.652344 104.40625 C 253.648438 94.476562 253.648438 78.300781 243.652344 68.371094 C 238.65625 63.40625 232.089844 60.921875 225.523438 60.921875 Z M 225.523438 63.535156 C 231.40625 63.535156 237.285156 65.777344 241.796875 70.214844 C 250.773438 79.136719 250.773438 93.640625 241.796875 102.515625 C 232.820312 111.4375 218.226562 111.4375 209.292969 102.515625 C 200.316406 93.640625 200.316406 79.136719 209.25 70.214844 C 213.761719 65.777344 219.640625 63.535156 225.523438 63.535156 Z M 217.5625 85.070312 C 216.8125 85.070312 216.238281 85.640625 216.238281 86.390625 C 216.238281 87.136719 216.8125 87.707031 217.5625 87.707031 L 234.367188 87.707031 C 235.121094 87.707031 235.695312 87.136719 235.695312 86.390625 C 235.695312 85.640625 235.121094 85.070312 234.367188 85.070312 Z M 217.5625 85.070312 " fill-opacity="1" fill-rule="nonzero"/></g><g clip-path="url(#5795dbebf9)"><path fill="#ffffff" d="M 99.527344 58.828125 C 84.226562 58.828125 71.777344 71.277344 71.777344 86.578125 C 71.777344 101.882812 84.226562 114.328125 99.527344 114.328125 C 114.828125 114.328125 127.277344 101.882812 127.277344 86.578125 C 127.277344 71.277344 114.828125 58.828125 99.527344 58.828125 Z M 99.527344 110.628906 C 86.265625 110.628906 75.480469 99.839844 75.480469 86.578125 C 75.480469 73.316406 86.265625 62.53125 99.527344 62.53125 C 112.789062 62.53125 123.578125 73.316406 123.578125 86.578125 C 123.578125 99.839844 112.789062 110.628906 99.527344 110.628906 Z M 99.527344 110.628906 " fill-opacity="1" fill-rule="nonzero"/></g><path fill="#ffffff" d="M 109.207031 84.730469 L 101.378906 84.730469 L 101.378906 76.902344 C 101.378906 75.878906 100.550781 75.050781 99.527344 75.050781 C 98.507812 75.050781 97.679688 75.878906 97.679688 76.902344 L 97.679688 84.730469 L 89.847656 84.730469 C 88.828125 84.730469 88 85.558594 88 86.578125 C 88 87.601562 88.828125 88.429688 89.847656 88.429688 L 97.679688 88.429688 L 97.679688 96.257812 C 97.679688 97.28125 98.507812 98.109375 99.527344 98.109375 C 100.550781 98.109375 101.378906 97.28125 101.378906 96.257812 L 101.378906 88.429688 L 109.207031 88.429688 C 110.230469 88.429688 111.058594 87.601562 111.058594 86.578125 C 111.058594 85.558594 110.230469 84.730469 109.207031 84.730469 Z M 109.207031 84.730469 " fill-opacity="1" fill-rule="nonzero"/><g clip-path="url(#33800b2e52)"><path fill="#ffffff" d="M 166.746094 291.675781 L 150.121094 268.003906 C 149.121094 269.082031 147.980469 270.039062 146.679688 270.808594 L 140.878906 286.855469 L 148.332031 297.480469 C 149.132812 298.625 149.5625 299.984375 149.5625 301.378906 L 149.566406 328.148438 C 149.570312 333.222656 153.695312 337.335938 158.777344 337.332031 C 163.859375 337.328125 167.976562 333.21875 167.980469 328.148438 L 167.980469 295.582031 C 167.980469 294.183594 167.546875 292.820312 166.746094 291.675781 Z M 166.746094 291.675781 " fill-opacity="1" fill-rule="nonzero"/></g><path fill="#ffffff" d="M 114.355469 277.105469 C 114.410156 277.121094 114.519531 277.152344 114.519531 277.152344 C 117.976562 278.074219 121.527344 276.027344 122.453125 272.582031 L 123.621094 268.226562 C 120.871094 265.375 119.3125 261.601562 119.3125 257.589844 L 119.3125 236.890625 L 118.023438 239.578125 C 117.84375 239.953125 117.699219 240.34375 117.59375 240.746094 L 109.941406 269.234375 C 109.027344 272.628906 111 276.113281 114.355469 277.105469 Z M 114.355469 277.105469 " fill-opacity="1" fill-rule="nonzero"/><g clip-path="url(#8f37feddf5)"><path fill="#ffffff" d="M 152.449219 190.230469 C 152.449219 191.257812 152.351562 192.277344 152.148438 193.285156 C 151.949219 194.292969 151.652344 195.269531 151.257812 196.21875 C 150.863281 197.167969 150.378906 198.070312 149.808594 198.925781 C 149.234375 199.78125 148.585938 200.570312 147.859375 201.296875 C 147.128906 202.023438 146.335938 202.671875 145.480469 203.242188 C 144.625 203.8125 143.722656 204.296875 142.769531 204.691406 C 141.816406 205.082031 140.835938 205.378906 139.828125 205.578125 C 138.816406 205.78125 137.796875 205.878906 136.769531 205.878906 C 135.738281 205.878906 134.71875 205.78125 133.707031 205.578125 C 132.699219 205.378906 131.71875 205.082031 130.765625 204.691406 C 129.816406 204.296875 128.910156 203.8125 128.054688 203.242188 C 127.199219 202.671875 126.40625 202.023438 125.679688 201.296875 C 124.949219 200.570312 124.300781 199.78125 123.726562 198.925781 C 123.15625 198.070312 122.671875 197.167969 122.277344 196.21875 C 121.886719 195.269531 121.585938 194.292969 121.386719 193.285156 C 121.1875 192.277344 121.085938 191.257812 121.085938 190.230469 C 121.085938 189.203125 121.1875 188.1875 121.386719 187.179688 C 121.585938 186.171875 121.886719 185.191406 122.277344 184.242188 C 122.671875 183.292969 123.15625 182.390625 123.726562 181.539062 C 124.300781 180.683594 124.949219 179.894531 125.679688 179.167969 C 126.40625 178.441406 127.199219 177.789062 128.054688 177.21875 C 128.910156 176.648438 129.816406 176.167969 130.765625 175.773438 C 131.71875 175.378906 132.699219 175.082031 133.707031 174.882812 C 134.71875 174.683594 135.738281 174.582031 136.769531 174.582031 C 137.796875 174.582031 138.816406 174.683594 139.828125 174.882812 C 140.835938 175.082031 141.816406 175.378906 142.769531 175.773438 C 143.722656 176.167969 144.625 176.648438 145.480469 177.21875 C 146.335938 177.789062 147.128906 178.441406 147.859375 179.167969 C 148.585938 179.894531 149.234375 180.683594 149.808594 181.539062 C 150.378906 182.390625 150.863281 183.292969 151.257812 184.242188 C 151.652344 185.191406 151.949219 186.171875 152.148438 187.179688 C 152.351562 188.1875 152.449219 189.203125 152.449219 190.230469 Z M 152.449219 190.230469 " fill-opacity="1" fill-rule="nonzero"/></g><path fill="#ffffff" d="M 143.269531 251.578125 C 141.746094 250.574219 140.5625 249.078125 139.933594 247.363281 L 131.652344 224.667969 C 130.160156 220.578125 131.953125 215.96875 135.738281 214.167969 C 136.871094 213.628906 138.070312 213.355469 139.308594 213.355469 C 142.757812 213.355469 145.875 215.53125 147.058594 218.765625 L 152.449219 233.542969 L 152.449219 223.558594 C 152.449219 216.046875 146.339844 209.964844 138.8125 209.964844 L 134.722656 209.964844 C 127.179688 209.964844 121.085938 216.046875 121.085938 223.558594 L 121.085938 257.589844 C 121.085938 261.871094 123.070312 265.6875 126.167969 268.179688 L 116.03125 296.199219 C 115.90625 296.542969 115.753906 296.875 115.578125 297.195312 L 102 321.570312 C 99.554688 325.964844 100.8125 331.683594 105.144531 334.253906 C 109.625 336.917969 115.390625 335.347656 117.90625 330.828125 L 132.414062 304.796875 C 132.59375 304.476562 132.746094 304.144531 132.867188 303.800781 L 145.234375 269.59375 C 149.511719 267.308594 152.429688 262.8125 152.449219 257.640625 Z M 143.269531 251.578125 " fill-opacity="1" fill-rule="nonzero"/><path fill="#ffffff" d="M 177.234375 256.386719 L 155.132812 242.0625 C 153.894531 241.257812 152.949219 240.074219 152.441406 238.683594 L 145.394531 219.371094 C 144.09375 215.824219 140.003906 214.097656 136.5 215.765625 C 133.449219 217.214844 132.160156 220.890625 133.316406 224.0625 L 141.601562 246.757812 C 142.101562 248.128906 143.027344 249.300781 144.246094 250.105469 L 170.410156 267.378906 C 173.589844 269.4375 177.898438 268.363281 179.695312 264.929688 C 181.257812 261.9375 180.070312 258.222656 177.234375 256.386719 Z M 177.234375 256.386719 " fill-opacity="1" fill-rule="nonzero"/></svg>