<svg xmlns="http://www.w3.org/2000/svg" xmlns:xlink="http://www.w3.org/1999/xlink" width="500" zoomAndPan="magnify" viewBox="0 0 375 374.999991" height="500" preserveAspectRatio="xMidYMid meet" version="1.0"><defs><clipPath id="4fa9ff966d"><path d="M 28.125 59.902344 L 343.125 59.902344 L 343.125 374.902344 L 28.125 374.902344 Z M 28.125 59.902344 " clip-rule="nonzero"/></clipPath></defs><g clip-path="url(#4fa9ff966d)"><path fill="#41c1ba" d="M 338.019531 374.878906 L 33.253906 374.878906 C 30.496094 374.878906 28.257812 372.640625 28.257812 369.882812 L 28.257812 341.410156 C 28.257812 294.046875 66.792969 255.507812 114.160156 255.507812 L 257.113281 255.507812 C 304.480469 255.507812 343.015625 294.046875 343.015625 341.410156 L 343.015625 369.882812 C 343.015625 372.640625 340.78125 374.878906 338.019531 374.878906 Z M 185.636719 242.078125 C 135.410156 242.078125 94.550781 201.214844 94.550781 150.988281 C 94.550781 100.761719 135.410156 59.902344 185.636719 59.902344 C 235.863281 59.902344 276.726562 100.761719 276.726562 150.988281 C 276.726562 201.214844 235.863281 242.078125 185.636719 242.078125 Z M 185.636719 242.078125 " fill-opacity="1" fill-rule="nonzero"/></g></svg>